# xmcd
#
# Track frame offsets: 
#        150
#        16089
#        31307
#        44912
#        60368
#        79648
#        99143
#        118999
#        131513
#        147207
#        171195
#        183256
#
# Disc length: 2804 seconds
#
# Revision: 8
# Processed by: cddbd v1.5.2PL0 Copyright (c) Steve Scherf et al.
# Submitted via: ExactAudioCopy v0.95a5
#
DISCID=970af20c
DTITLE=Bersuit Vergarabat - Libertinaje
DYEAR=1998
DGENRE=
TTITLE0=Yo tomo
TTITLE1=A los tambores
TTITLE2=De onda
TTITLE3=Se viene
TTITLE4=Murguita del sur
TTITLE5=Sr. Cobranza
TTITLE6=Vuelos
TTITLE7=Gente de mierdas
TTITLE8=Sincerebro
TTITLE9=A mar_a de Deux
TTITLE10=C. S. M.
TTITLE11=Qué pasó?
EXTD=
EXTT0=
EXTT1=
EXTT2=
EXTT3=
EXTT4=
EXTT5=
EXTT6=
EXTT7=
EXTT8=
EXTT9=
EXTT10=
EXTT11=
PLAYORDER=
